<svg width="5" height="17" viewBox="0 0 5 17" fill="none" xmlns="http://www.w3.org/2000/svg">
<path d="M2.01562 4.03125C3.09375 4.03125 4.03125 3.09375 4.03125 2.01562C4.03125 0.9375 3.09375 0 2.01562 0C0.9375 0 0 0.9375 0 2.01562C0 3.09375 0.9375 4.03125 2.01562 4.03125ZM2.01562 6C0.9375 6 0 6.9375 0 8.01562C0 9.09375 0.9375 10.0312 2.01562 10.0312C3.09375 10.0312 4.03125 9.09375 4.03125 8.01562C4.03125 6.9375 3.09375 6 2.01562 6ZM2.01562 12C0.9375 12 0 12.9375 0 14.0156C0 15.0938 0.9375 16.0312 2.01562 16.0312C3.09375 16.0312 4.03125 15.0938 4.03125 14.0156C4.03125 12.9375 3.09375 12 2.01562 12Z" fill="#475569"/>
</svg>
